<?xml version="1.0" encoding="UTF-8"?><svg id="Layer_2" xmlns="http://www.w3.org/2000/svg" viewBox="0 0 144.21 183.53"><g id="Layer_1-2"><path d="M144.2,5.84v69.36c0,6.37-4.29,12.01-10.46,13.7l-106.2,29.71V41.64c0-6.37,4.29-12.01,10.46-13.7L136.82.21c.52-.14,1.05-.21,1.58-.21,2.79,0,5.81,2.24,5.81,5.84" fill="#9ff" opacity=".81"/><path d="M133.73,109.9c6.17-1.69,10.47-7.33,10.47-13.7V26.85c0-3.61-3.03-5.84-5.81-5.84-.53,0-1.06.07-1.59.2l-98.8,27.73c-6.19,1.69-10.47,7.33-10.47,13.7v76.45l.07-.02,106.14-29.17h-.01Z" fill="#12d1fa"/><path d="M126.02,112.02v10.14c0,10.66-7.13,20.02-17.41,22.85l-8.13,2.2v4.7c0,5.82-3.85,10.95-9.45,12.56l-67.43,18.4c-11.9,3.23-23.6-5.74-23.6-18.05v-78.3l27.52-7.43,46.28-12.49v11.78c0,10.66-7.12,20.02-17.41,22.84l-28.88,7.74v30.13l25.95-7.13,72.54-19.94h.02Z" fill="#7d00d6"/></g></svg>