<?xml version="1.0" encoding="UTF-8"?><svg id="Layer_2" xmlns="http://www.w3.org/2000/svg" viewBox="0 0 607.96 183.53"><g id="Layer_1-2"><path d="M333.41,111.76c-9.87,0-17.9-7.98-17.9-17.8s8.03-17.79,17.9-17.79,17.9,7.98,17.9,17.79-8.03,17.8-17.9,17.8M351.41,62.59v3.65c-5.19-3.33-11.36-5.28-18-5.28-18.33,0-33.19,14.77-33.19,32.99s14.86,33,33.19,33c6.64,0,12.81-1.94,18-5.28v3.65h15.44v-62.74h-15.44Z" fill="#7d00d6"/><path d="M204.77,110.31c-2,.91-4.08,1.41-6.24,1.41-3.07,0-5.81-.83-8.23-2.48-2.49-1.57-4.4-3.8-5.81-6.45-1.41-2.73-2.17-5.61-2.17-8.75s.75-6.11,2.17-8.84c1.41-2.73,3.32-4.87,5.81-6.52,2.42-1.66,5.16-2.49,8.23-2.49,2.07,0,4.15.41,6.15,1.41,2,.9,3.74,2.23,5.16,3.88l13.95-7.43c-2.91-4.05-6.56-7.19-10.97-9.59-4.4-2.39-9.13-3.55-14.29-3.55-4.4,0-8.48.82-12.29,2.56-3.82,1.65-7.15,4.05-10.06,7.1-2.91,3.06-5.15,6.53-6.81,10.58-1.66,3.96-2.41,8.26-2.41,12.88,0,6.03,1.41,11.57,4.24,16.61,2.83,4.95,6.64,9,11.38,11.98,4.82,2.96,10.14,4.38,15.95,4.38,5.16,0,9.89-1.16,14.29-3.55,4.41-2.4,8.06-5.54,10.97-9.5l-13.95-7.43c-1.42,1.57-3.08,2.89-5.07,3.79" fill="#7d00d6"/><path d="M287.51,73.24c-2.24-3.8-5.23-6.78-9.06-9-3.74-2.24-7.98-3.32-12.54-3.32-3.41,0-6.65.59-9.65,1.9-2.98,1.32-5.56,3.14-7.72,5.38l-.09-21.48h-15.37l.09,78.72h15.37v-35.68c0-2.47.58-4.71,1.83-6.78,1.17-1.99,2.83-3.64,4.82-4.79,2.09-1.24,4.33-1.81,6.82-1.81s4.74.57,6.82,1.81c1.99,1.15,3.65,2.8,4.89,4.79,1.17,2.06,1.84,4.3,1.84,6.78v35.68h15.37v-39.73c0-4.54-1.08-8.75-3.41-12.47" fill="#7d00d6"/><rect x="492.25" y="46.7" width="15.79" height="15.69" fill="#12d1fa"/><rect x="492.45" y="70.51" width="15.46" height="54.92" fill="#7d00d6"/><rect x="517.33" y="46.72" width="15.37" height="78.72" fill="#7d00d6"/><path d="M449.6,111.76c-9.87,0-17.9-7.98-17.9-17.8s8.03-17.79,17.9-17.79,17.9,7.98,17.9,17.79-8.04,17.8-17.9,17.8M467.51,62.66v3.53c-5.17-3.3-11.32-5.23-17.92-5.23-18.33,0-33.19,14.77-33.19,32.99s14.86,33.01,33.19,33.01c6.6,0,12.75-1.92,17.92-5.23v4.86c0,2.31-.5,4.38-1.5,6.19-1.08,1.81-2.49,3.39-4.33,4.63-1.74,1.32-3.74,2.22-6.06,2.89-2.08.66-4.41,1-6.57,1.08h-24.25v15.45h24.25c4.4-.08,8.57-.83,12.55-2.14,4.07-1.49,7.81-3.48,11.04-6.2,3.08-2.64,5.65-5.87,7.56-9.58,1.84-3.64,2.74-7.76,2.74-12.3v-63.94h-15.45.02Z" fill="#7d00d6"/><path d="M376.23,125.39h15.37v-22.15l.07-25.36h19.59l-.14-15.27h-25.18c-5.4,0-9.79,4.36-9.79,9.73l.09,53.04h0Z" fill="#7d00d6"/><path d="M592.25,62.66h15.71v60.33c0,5.51-.15,10.89-2.74,15.91-1.91,3.71-4.48,6.94-7.56,9.58-3.23,2.73-6.97,4.71-11.05,6.2-3.98,1.31-8.15,2.06-12.55,2.14h-24.25v-15.45h24.25c2.16-.08,4.49-.41,6.56-1.08,2.33-.66,4.33-1.56,6.06-2.89,1.84-1.24,3.25-2.81,4.33-4.63,1.07-1.79,1.49-4.13,1.49-6.19v-8.76c-1.91,2.73-4.41,4.96-7.4,6.69-2.99,1.66-6.39,2.48-10.3,2.48-4.57,0-8.81-.82-12.79-2.48-3.9-1.73-7.4-4.2-10.47-7.18-2.99-3.06-5.32-6.53-6.98-10.49-3.56-8.5-2.58-18.31-2.58-27.33v-16.87h15.71v32.82c0,9.48,7.74,17.18,17.28,17.18s17.28-7.69,17.28-17.18v-32.82.02Z" fill="#7d00d6"/><path d="M144.2,5.84v69.36c0,6.37-4.29,12.01-10.46,13.7l-106.2,29.71V41.64c0-6.37,4.29-12.01,10.46-13.7L136.82.21c.52-.14,1.05-.21,1.58-.21,2.79,0,5.81,2.24,5.81,5.84" fill="#9ff" opacity=".81"/><path d="M133.73,109.9c6.17-1.69,10.47-7.33,10.47-13.7V26.85c0-3.61-3.03-5.84-5.81-5.84-.53,0-1.06.07-1.59.2l-98.8,27.73c-6.19,1.69-10.47,7.33-10.47,13.7v76.45l.07-.02,106.14-29.17h-.01Z" fill="#12d1fa"/><path d="M126.02,112.02v10.14c0,10.66-7.13,20.02-17.41,22.85l-8.13,2.2v4.7c0,5.82-3.85,10.95-9.45,12.56l-67.43,18.4c-11.9,3.23-23.6-5.74-23.6-18.05v-78.3l27.52-7.43,46.28-12.49v11.78c0,10.66-7.12,20.02-17.41,22.84l-28.88,7.74v30.13l25.95-7.13,72.54-19.94h.02Z" fill="#7d00d6"/></g></svg>