<?xml version="1.0" encoding="UTF-8"?>
<svg id="uuid-7ffffe49-761d-47a1-9d43-98e1d19cf541" data-name="Layer_2" xmlns="http://www.w3.org/2000/svg" viewBox="0 0 457.87 287.37">
  <defs>
    <style>
      .uuid-18a52cbb-d0a4-4512-bd16-fbdfa91123a5 {
        fill: #f76a11;
      }

      .uuid-94790403-df75-456d-8414-65784fe6f2ef {
        fill: #09244e;
      }
    </style>
  </defs>
  <g id="uuid-bd2324b7-29bf-4378-922e-d5d5e318adc6" data-name="Layer_1">
    <path class="uuid-94790403-df75-456d-8414-65784fe6f2ef" d="M314.12.72c-68.3,80.44-135.82,159.95-204.04,240.29,7.15,0,13.39,0,19.62,0,24.32.02,48.64.12,72.96-.02,3.78-.02,4.83.48,3.69,4.51-3.47,12.29-6.57,24.69-9.72,37.06-.72,2.84-1.67,4.53-5.24,4.52-63.13-.14-126.27-.13-189.4-.17-.61,0-1.35.24-2-1.07C65.8,208.76,131.75,131.5,198.09,53.79c-11.51,0-22.6.01-33.68,0-28.32-.04-56.64-.17-84.95-.05-4.41.02-5.31-.9-4.07-5.31,4.12-14.69,7.81-29.5,11.57-44.28.69-2.71,1.71-4.02,4.96-4.02,73.13.13,146.26.12,219.39.14.32,0,.63.1,2.83.46Z"/>
    <path class="uuid-18a52cbb-d0a4-4512-bd16-fbdfa91123a5" d="M437.77,20.02l.05.08h-.07c-.36.02-.6-.08-.76-.25-.05-.04-.1-.1-.13-.17-.07-.13-.11-.27-.14-.44-.03-.16-.04-.33-.05-.51-.1-1.56-1.38-2.23-2.39-3.03-11.04-8.74-23.88-13.1-37.67-14.58-19.75-2.11-39.59-.5-59.39-1-2.13-.05-3.37,1.14-4.57,2.56-13.41,15.69-26.84,31.36-40.16,47.12-.8.94-2.98,1.62-1.85,3.45.93,1.51,2.75.76,4.18.89.81.08,1.65-.17,2.48-.17,26.47.09,52.95.03,79.42.4,9.97.13,17.31,6.27,19.5,14.96,1,3.98.29,7.91-.54,11.76-1.92,8.85-6.43,15.92-14.68,20.3-6.8,3.6-14.05,4.73-21.66,4.71-16.19-.04-32.38-.04-48.57-.02-.39-.01-.77,0-1.16,0l-26.72.15c-13.08.07-24.49,8.91-27.84,21.55l-1.37,5.19-3.65,13.8-3.6,13.6c.18.04.37.08.55.12-.41.9-.98,1.76-1.23,2.71-2.43,9.07-4.85,18.15-7.28,27.23l-.22.83c-2.91,10.93-5.82,21.86-8.72,32.79-5.11,19.23-10.11,38.49-15.41,57.67-1.14,4.1-.73,5.53,3.92,5.47,13.81-.16,27.62.11,41.44.17q10.67.05,13.63-10.66c.53-1.9,1.3-3.73,1.81-5.63,9.29-34.45,18.58-68.9,27.79-103.38h22.27c11.75,16.93,24.59,35.27,36.36,52.18,1.19,1.7,2.42,3.04,4.77,3.03,19.79-.13,39.59-.19,59.39-.26,3.14-.02,3.92-1.08,1.96-3.83-3.96-5.55-7.78-11.19-11.7-16.77-10.5-14.95-21.03-29.89-31.54-44.83,1.08-.38,2.14-.86,3.26-1.14,13.51-3.37,25.64-9.61,36.54-18.14,20.89-16.36,31.24-38.57,33.51-64.4,1.82-20.6-3.5-39.25-19.76-53.51Z"/>
  </g>
</svg>