<?xml version="1.0" encoding="UTF-8"?><svg id="Layer_2" xmlns="http://www.w3.org/2000/svg" viewBox="0 0 1104.4 300.21"><g id="Layer_1-2"><path d="M314.12,13.56c-68.3,80.44-135.82,159.95-204.04,240.29,7.15,0,13.39,0,19.62,0,24.32.02,48.64.12,72.96-.02,3.78-.02,4.83.48,3.69,4.51-3.47,12.29-6.57,24.69-9.72,37.06-.72,2.84-1.67,4.53-5.24,4.52-63.13-.14-126.27-.13-189.4-.17-.61,0-1.35.24-2-1.07,65.8-77.08,131.75-154.34,198.09-232.05-11.51,0-22.6.01-33.68,0-28.32-.04-56.64-.17-84.95-.05-4.41.02-5.31-.9-4.07-5.31,4.12-14.69,7.81-29.5,11.57-44.28.69-2.71,1.71-4.02,4.96-4.02,73.13.13,146.26.12,219.39.14.32,0,.63.1,2.83.46Z" fill="#151b4e"/><path d="M437.82,32.94h-.07s.01-.04.02-.06v-.02l.05.08Z" fill="#f7b811"/><path d="M717.71,36.01c-2.29,9.3-4.75,18.39-6.66,27.6-.63,3.04-3.59,7.38,2.27,9.05,5.76,1.64,10.83-.64,12.37-6,2.16-7.5,4.05-15.09,5.81-22.7,2.94-12.69,2.89-12.49,15.67-14.28,4.42-.62,4.59.54,3.61,4.19-2.37,8.83-4.36,17.76-6.62,26.61-2.3,9,.31,12.41,9.73,12.48,10.31.08,13.08-2.06,15.51-12.18,3.89-16.16,8.02-32.28,11.46-48.53,1.54-7.28,4.99-11.24,12.51-11.56,2.28-.1,4.52-1.05,7.44-.55-1.69,7.1-3.35,14.12-5.01,21.14-3.38,14.24-6.63,28.51-10.16,42.7-4.88,19.57-19.73,28.58-39.22,24.04-2.62-.61-5.54-1.23-7.14-3.28-3.06-3.89-4.99-2.54-8.31-.05-8.82,6.61-20.73,6-29.96-.97-1.26-.95-1.69-.74-2.83.03-9.62,6.48-19.46,8.45-29.43.75-1.36-1.05-1.95-.23-2.96.33-10.02,5.58-20.38,5.64-30.66,1.07-2.84-1.27-3.23-.5-3.84,1.86-1.34,5.15-2.92,10.23-5.82,14.79-6.29,9.88-17.3,14.69-28.3,12.63-3.36-.63-4.24-1.95-3.02-5.07.66-1.69,1.13-3.5,1.39-5.3.53-3.75,1.76-5.71,6.33-5.21,5.77.63,9.87-2.6,11.63-8.85,2.97-10.55,5.47-21.24,8.13-31.88,1.37-5.48,2.99-10.94,3.85-16.5.97-6.31,4.31-9.02,10.52-9.82,9.2-1.18,9.16-1.5,7,7.33-1.7,6.95-3.49,13.87-5.07,20.84-1.96,8.7.88,12.15,9.86,12.27,10.44.14,12.18-1.18,14.9-11.38.77-2.89,1.27-5.87,2.24-8.69,1.06-3.06.34-7.58,3.46-8.9,4.35-1.85,9.32-2.4,14.09-3,2.9-.36,1.3,2.18,1.08,3.17-1.52,6.81-3.37,13.55-4.87,20.37-.62,2.82-2.81,6.3,1.85,8.01,4.67,1.71,10.26-.16,12.09-4.2.82-1.8,1.33-3.76,1.82-5.69,1.6-6.29,3.55-12.52,4.53-18.91.77-5.05,3.46-6.64,7.94-6.84,3.44-.15,6.79-1.49,10.77-.94Z" fill="#151b4e"/><path d="M437.82,32.94h-.07s.01-.04.02-.06v-.02l.05.08Z" fill="#151b4e"/><path d="M598.78,32.48c-5,.83-7.4,2.9-8.33,8.05-1.42,7.83-3.64,15.52-5.76,23.2-1.94,7.03-4.96,9.18-12.21,9.2-8.16.01-16.32.01-24.48-.1-1.35-.01-2.97.66-4.24-.96,6.33-4.68,12.59-9.35,16.69-16.25,6.63-11.19,2.77-21.88-9.69-25.44-13.38-3.81-26.3-1.98-38.71,4.26-7.73,3.88-9.02,11.42-11.12,18.56-.27.9.17,1.49.94,2.05,4.62,3.32,6.84,8.44,9.85,13.01,2.09,3.17,1.77,4.47-1.99,5.65-11.5,3.64-19.5,11.19-23.41,22.69-5.05,14.86.42,26.92,14.37,31.08,10.69,3.19,21.38,2.17,31.88-1.39,1.35-.46,2.54-.99,2.84-2.47.88-4.35,1.68-8.72,2.61-13.57-8.63,2.41-16.69,4.16-25.07,2.9-10.33-1.56-14.39-11.33-8.15-19.78,3.7-5,9-7.74,14.62-10,2.29-.93,4.11-1.02,6.36.52,4.01,2.76,8.65,4.03,13.55,4.55,10.14,1.07,20.3.59,30.45.6,18.1.01,27.33-7.13,31.88-24.62,1.97-7.56,3.54-15.21,5.39-22.8,2.68-11.01,2.76-10.77-8.27-8.94ZM529.29,65.98c-4.67.13-4.06-6.19-6.66-9.09-1.31-1.46-2.23-3.28-3.46-4.83-3.44-4.33-3.48-4.33,2.03-6.1,4.12-1.32,8.31-2.23,14.75-2.08,2.74.15,8.61-.22,10.41,4.99,1.71,4.95-3.65,7.58-6.81,10.53-3.02,2.83-6.52,6.47-10.26,6.58Z" fill="#151b4e"/><path d="M771.29,143.74c-12.59-1.43-25.28-.2-37.9-.7-3.11-.12-4.26.8-4.92,3.9-3.05,14.31-6.4,28.56-9.68,42.83-3.23,14.02-6.44,28.05-9.83,42.04-.72,2.99-.02,3.78,2.99,3.67,5.31-.19,10.65-.06,15.97.05,1.78.04,2.65-.43,3.03-2.35,1-5.14,2.26-10.22,3.45-15.32,2.12-9.07,2.13-8.88,11.15-9.08,3.24-.07,4.64,1.09,5.75,3.95,2.51,6.5,5.48,12.82,8.03,19.3.99,2.52,2.27,3.63,5.1,3.54,6.48-.21,12.98-.06,20.48-.06-4.21-9.39-8.01-18-11.94-26.55-1.02-2.24-1.37-3.6,1.54-4.81,11.29-4.7,17.73-13.56,20.66-25.19,4.83-19.14-4.44-33.01-23.88-35.22ZM765.23,188.09c-5.05,2.72-10.55,2.5-16.01,2.5-8.61,0-8.61-.04-6.78-8.51,1.05-4.87,2.46-9.7,3.08-14.62.57-4.6,2.19-7.03,7.18-5.99,1.12.23,2.33.04,3.49.04v-.1c1.17,0,2.33-.02,3.5.01,8.59.25,12.59,2.53,13.9,7.92,1.7,6.97-2.07,15.36-8.36,18.75Z" fill="#151b4e"/><path d="M1094.7.11c-5.51,22.64-10.57,45-16.49,67.14-3.83,14.34-14.42,21.58-29.23,21.71-5.16.04-10.35.17-15.42-1.03-1.92-.46-4.39-.74-5.5-2.04-4.02-4.69-7.31-1.98-11.57-.23-12.66,5.2-25.54,4.58-38.2-.21-1.45,4.16-2.69,8.64-4.55,12.85-5.58,12.6-18.21,19.29-30.8,16.84-2.98-.58-4.13-1.68-3.1-4.65.49-1.41,1.05-2.83,1.27-4.3.69-4.58,2.34-7.02,7.89-6.76,5.53.26,8.9-3.82,10.51-9.09,4.41-14.48,7.44-29.31,11.11-43.98.04-.16.05-.33.08-.49,2.71-11.86,5.91-14.33,18.02-14.48,2.97-.04,1.87,1.5,1.55,2.82-2.05,8.56-4.05,17.14-6.26,25.67-2.46,9.51.15,13.04,10.01,13.09,3,.01,6,.02,9-.03,7.62-.12,10.8-2.38,12.92-9.86,2-7.03,4.1-14.09,5.25-21.28,1-6.23,4.28-8.64,10.1-9.53,9.39-1.44,9.39-1.65,7.27,7.54-1.76,7.61-3.65,15.19-5.44,22.8-1.77,7.52.24,10.05,8.13,10.29,2.66.08,5.33.08,8,.07,8.08-.04,11.35-2.51,13.33-10.54,3.87-15.65,7.59-31.34,11.4-47,3.26-13.41,5.7-15.26,20.7-15.31Z" fill="#151b4e"/><path d="M865.65,216.84c-1.64,6.42-1.48,13.74-5.05,17.53-3.32,3.53-10.73,1-16.33,1.06-15.15.14-30.31-.08-45.47.1-3.74.04-4.29-.73-3.43-4.42,6.61-28.07,13-56.19,19.31-84.33.64-2.85,1.73-3.72,4.61-3.7,18.82.12,37.64.14,56.46,0,3.25-.03,3.51,1.1,2.82,3.75-1.08,4.12-2.09,8.27-2.8,12.46-.5,2.89-2.51,2.15-4.18,2.16-11.49.06-22.99.16-34.48,0-2.98-.04-4.57.63-5.04,3.83-.67,4.59-3.9,10.45-2.11,13.32,2.07,3.33,8.58.9,13.14,1.05,6.65.22,13.33.2,19.98-.07,3.01-.12,3.1.8,2.67,3.37-2.44,14.54-2.37,14.56-17.21,14.62-6.66.03-13.33.13-19.98-.04-2.66-.07-3.88.77-4.33,3.43-.72,4.26-1.54,8.52-2.73,12.66-.89,3.08.45,3.26,2.87,3.25,13.47-.07,26.94-.03,41.28-.03Z" fill="#151b4e"/><path d="M490.28,235.46c-9.66,0-19.32-.11-28.97.07-3.32.06-3.79-.76-3.04-3.96,6.58-28.32,13.03-56.68,19.33-85.06.67-3.02,1.96-3.56,4.71-3.54,18.65.1,37.3.12,55.95-.02,3.21-.02,4.17.64,3.17,3.89-1.12,3.64-2.03,7.39-2.58,11.16-.44,3.04-1.92,3.67-4.69,3.64-11.32-.11-22.65.16-33.97-.12-3.46-.08-4.78,1.2-5.14,4.24-.53,4.43-4.08,9.88-1.82,12.83,2.28,2.97,8.37.82,12.78.93,6.66.17,13.32.13,19.98-.03,2.51-.06,3.42.65,2.56,3.11-.11.31-.18.64-.28.96-1.41,4.56-.44,10.99-3.99,13.37-3.24,2.17-8.99.62-13.64.65-6.33.03-12.66.16-18.98-.08-2.98-.11-4.08,1.03-4.56,3.78-.71,4.09-1.49,8.2-2.75,12.15-1.04,3.27.2,3.54,2.93,3.52,12.15-.1,24.31.04,36.47-.1,3.16-.03,4.56.33,3.33,4.03-1.51,4.55-1.02,10.65-3.92,13.6-3.01,3.06-9.14.79-13.9.94-6.32.2-12.65.05-18.98.06Z" fill="#151b4e"/><path d="M710.71,163.69c-1.29-8.27-5.81-14.09-13.52-17.18-5.52-2.2-11.34-3.34-17.34-3.35-10.16,0-20.33.14-30.49-.21-3.71-.12-4.73,1.35-5.46,4.58-6.12,27.03-12.39,54.03-18.63,81.03-1.58,6.84-1.6,6.93,5.6,6.82,4.95-.08,11.06,2.02,14.53-.85,3.45-2.85,2.81-9.22,3.95-14.05,2.54-10.79,2.42-10.82,13.73-10.76,2.5,0,5,.08,7.5-.02,27.1-1.04,44.11-20.56,40.13-46.01ZM684.97,184.16c-5.31,6.27-12.3,7.14-18.57,6.66-10.53-.02-10.5-.01-8.35-9.12,1.29-5.49,2.64-10.97,3.64-16.51.52-2.87,1.73-3.9,4.62-3.69,3.14.22,6.31-.05,9.47,0,5.14.1,10.28.87,12.18,6.47,1.95,5.73,1.17,11.29-2.99,16.19Z" fill="#151b4e"/><path d="M1054.04,237.04c-9.81.47-19.17-1.91-28.09-6.55-4.05-2.1-5.4-4.28-2.53-8.45,2.53-3.69,3.58-9.15,6.92-11.33,4.01-2.61,7.24,3.32,11.33,4.58,7.97,2.45,15.87,3.82,24.02,1.49,3.82-1.09,7.2-2.99,7.26-7.71.06-4.63-3-6.69-6.86-8.05-6.2-2.18-12.66-3.83-18.52-6.7-14.9-7.3-17.39-25.09-5.78-38.89,4.97-5.91,11.28-9.91,18.68-11.88,13.78-3.66,27.31-3.21,40.41,3.08,3.38,1.62,4.78,3.38,2.15,6.7-.2.26-.31.59-.47.88-2.13,3.76-3.41,8.82-6.63,10.91-3.43,2.22-7.19-2.67-11.15-3.6-6.1-1.44-12.17-1.82-18.29-.53-2.46.52-4.73,1.6-6.55,3.42-4.34,4.32-3.44,10.03,2.3,12.43,4.74,1.99,9.73,3.39,14.64,4.95,9.72,3.09,17.97,8.09,19.08,19.18,1.13,11.32-3.06,20.98-12.44,27.83-8.67,6.32-18.56,8.74-29.46,8.25Z" fill="#f7b811"/><path d="M978.63,236.93c-10.24.46-19.74-2.08-28.78-6.82-3.85-2.02-5.17-4.16-2.4-8.11,2.19-3.12,4.12-6.47,5.79-9.9,1.38-2.83,2.6-3.08,5.18-1.24,7.73,5.51,16.44,7.82,25.94,7.08,3.03-.23,5.9-.92,8.6-2.35,2.89-1.53,4.58-3.86,4.66-7.15.08-3.32-2.07-5.21-4.82-6.33-4.46-1.81-9.02-3.39-13.55-5.05-1.08-.4-2.2-.71-3.27-1.13-18.95-7.38-23.36-26.16-9.44-41.25,12.39-13.43,28.36-14.73,45.17-12.44,4.99.68,9.58,2.67,14.11,4.84,2.98,1.43,3.49,3.24,1.65,5.87-.19.27-.34.57-.5.86-2.19,3.92-3.48,9.35-6.82,11.34-3.22,1.92-7.53-2.65-11.62-3.68-6.07-1.52-12.11-2.13-18.27-.65-2.85.69-5.3,2.1-7.1,4.37-3.15,3.97-2.23,8.42,2.2,10.89,3.95,2.2,8.29,3.41,12.54,4.87,3.77,1.29,7.6,2.54,11.15,4.31,8.56,4.24,12.41,11.9,11.17,21.41-2.23,17.05-16.23,29.11-35.12,30.21-2.16.13-4.33.02-6.49.02Z" fill="#f7b811"/><path d="M900.32,237.03c-8.4.19-18.06-2.37-27.15-7.47-3.21-1.8-3.74-3.58-1.76-6.69,2.59-4.07,3.83-9.9,7.43-12.18,4.18-2.65,7.88,3.45,12.24,4.87,7.17,2.33,14.26,3.26,21.61,1.67,4.5-.98,8.34-3.14,8.8-8.24.46-5.04-3.57-6.65-7.36-8.06-4.02-1.49-8.12-2.73-12.17-4.12-20.56-7.04-25.42-27.22-10.3-43.02,10.47-10.93,23.88-13.11,38.14-12.31,7.04.4,13.76,2.22,20.13,5.39,2.94,1.46,3.41,3.04,1.77,5.81-2.04,3.43-3.97,6.95-5.62,10.58-1.32,2.89-2.76,2.93-5.33,1.47-7.82-4.45-16.23-5.74-25.1-4.05-2.52.48-4.79,1.42-6.75,3.05-5,4.16-4.36,9.95,1.48,12.8,2.08,1.02,4.32,1.73,6.52,2.5,3.45,1.21,6.98,2.24,10.39,3.55,19.2,7.41,23.48,26.22,9.47,41.57-9.28,10.16-21.34,12.91-36.45,12.86Z" fill="#f7b811"/><path d="M860.81,44.31c.73-2.69,1.38-5.05,2.01-7.43q2.21-8.33,10.74-8.14c14.82.32,22.5,7.4,24.07,22.45.45,4.29.26,8.65.52,12.96.4,6.64,2.7,8.74,9.41,8.78,3.83.02,7.66.03,11.49-.03,6.53-.11,9.85-2.52,11.55-8.82,2.11-7.86,4.31-15.72,5.84-23.71.94-4.94,3.49-7.16,8.17-7.77,3.43-.45,6.83-1.12,11.25-1.87-4.53,14.72-5.54,29.62-11.95,43.02-4.72,9.86-13.01,14.96-23.98,15.06-6.64.06-13.31.6-19.93-.51-4.24-.71-7.52-4.43-11.01-4.97-2.81-.43-6.25,4.27-10.43,4.8-11.45,1.45-22.95.34-34.41.75-2.22.08-1.9-1.21-1.57-2.6.9-3.71,1.96-7.4,2.66-11.15.51-2.77,2.46-2.2,4.18-2.2,9.16-.03,18.32-.15,27.47.05,3.39.07,4.88-.91,4.71-4.43-.2-4.15.18-8.31-.53-12.45-1.57-9.14-5.18-12.16-14.59-12.03-1.79.03-3.59.15-5.67.24Z" fill="#151b4e"/><path d="M585.24,168.96c7.42-6.88,13.56-14.91,20.1-22.57,2.12-2.48,4.27-3.66,7.63-3.53,6.94.27,13.9.08,20.89.08.36,2.32-1.35,3.2-2.34,4.35-10.93,12.7-21.93,25.34-32.88,38.02-1.17,1.35-2.71,2.53-2.75,4.57-6.64,4.94-11.59,11.4-16.21,18.15-7.01,7.95-14.14,15.81-20.98,23.91-2.23,2.64-4.47,3.94-8.02,3.8-7.12-.27-14.25-.08-21.39-.08-.63-2.61,1.28-3.59,2.36-4.85,10.96-12.72,22.01-25.37,32.98-38.08,1.61-1.86,3.61-3.47,4.39-5.95,6.3-5.12,11.23-11.49,16.22-17.81Z" fill="#f7b811"/><path d="M792.66,88.81c3.5-14.66,6.88-28.83,10.25-43,2.73-11.47,5.45-22.94,8.16-34.42,1.95-8.24,2.97-9.2,11.52-10.57q8.38-1.35,6.49,6.66c-6.16,25.85-12.36,51.68-18.44,77.55-.69,2.92-1.91,4.08-5.01,3.85-4.12-.3-8.28-.07-12.97-.07Z" fill="#151b4e"/><path d="M579.67,208.02c4.62-6.75,9.57-13.2,16.21-18.15,6.53,14.16,13.03,28.34,19.61,42.48.97,2.09,1.33,3.28-1.78,3.19-6.48-.18-12.98-.26-19.46-.03-2.94.1-3.62-1.69-4.47-3.7-3.36-7.93-6.74-15.86-10.11-23.8Z" fill="#151b4e"/><path d="M585.24,168.96c-4.99,6.32-9.92,12.69-16.22,17.81-6.36-14.37-12.72-28.74-19.35-43.74,8.06,0,15.34.04,22.62-.03,1.64-.02,2.38.74,2.94,2.09,3.32,7.97,6.67,15.92,10.02,23.87Z" fill="#151b4e"/><path d="M1022.56,104.3c.11,5.43-5.34,10.87-10.88,10.87-4,0-6.65-2.51-6.75-6.38-.14-5.57,5.04-11.06,10.57-11.19,4.02-.1,6.97,2.71,7.06,6.71Z" fill="#151b4e"/><path d="M936.74,104.19c.06,5.59-5.11,10.91-10.71,11.01-4.11.07-6.72-2.29-6.85-6.2-.18-5.39,5.16-11.2,10.49-11.4,4.1-.16,7.03,2.57,7.07,6.59Z" fill="#151b4e"/><path d="M910.56,97.7c4.11,0,6.61,2.67,6.56,6.99-.07,5.36-5.23,10.48-10.57,10.5-4.16.01-6.78-2.58-6.84-6.78-.09-5.52,5.18-10.71,10.86-10.7Z" fill="#151b4e"/><path d="M571.53,104.27c.16,5.36-4.85,10.64-10.31,10.87-4.27.18-7.08-2.39-7.11-6.49-.04-5.43,4.96-10.78,10.25-10.97,4.09-.15,7.05,2.57,7.17,6.59Z" fill="#151b4e"/><path d="M590.9,104.53c.06,5.47-4.84,10.44-10.44,10.62-4.34.13-6.91-2.3-6.94-6.57-.04-5.81,4.94-10.94,10.64-10.95,4.15,0,6.7,2.61,6.74,6.91Z" fill="#151b4e"/><path d="M437.82,32.94h-.07c-.36.02-.6-.08-.76-.25-.05-.05-.09-.11-.13-.17-.07-.13-.11-.27-.14-.44-.03-.16-.04-.33-.05-.51.36.43.74.87,1.1,1.31.02.02.03.04.05.06Z" fill="#151b4e"/><path d="M437.77,32.86l.05.08h-.07c-.36.02-.6-.08-.76-.25-.05-.04-.1-.1-.13-.17-.07-.13-.11-.27-.14-.44-.03-.16-.04-.33-.05-.51-.1-1.56-1.38-2.23-2.39-3.03-11.04-8.74-23.88-13.1-37.67-14.58-19.75-2.11-39.59-.5-59.39-1-2.13-.05-3.37,1.14-4.57,2.56-13.41,15.69-26.84,31.36-40.16,47.12-.8.94-2.98,1.62-1.85,3.45.93,1.51,2.75.76,4.18.89.81.08,1.65-.17,2.48-.17,26.47.09,52.95.03,79.42.4,9.97.13,17.31,6.27,19.5,14.96,1,3.98.29,7.91-.54,11.76-1.92,8.85-6.43,15.92-14.68,20.3-6.8,3.6-14.05,4.73-21.66,4.71-16.19-.04-32.38-.04-48.57-.02-.39-.01-.77,0-1.16,0l-26.72.15c-13.08.07-24.49,8.91-27.84,21.55l-1.37,5.19-3.65,13.8-3.6,13.6c.18.04.37.08.55.12-.41.9-.98,1.76-1.23,2.71-2.43,9.07-4.85,18.15-7.28,27.23l-.22.83c-2.91,10.93-5.82,21.86-8.72,32.79-5.11,19.23-10.11,38.49-15.41,57.67-1.14,4.1-.73,5.53,3.92,5.47,13.81-.16,27.62.11,41.44.17q10.67.05,13.63-10.66c.53-1.9,1.3-3.73,1.81-5.63,9.29-34.45,18.58-68.9,27.79-103.38h22.27c11.75,16.93,24.59,35.27,36.36,52.18,1.19,1.7,2.42,3.04,4.77,3.03,19.79-.13,39.59-.19,59.39-.26,3.14-.02,3.92-1.08,1.96-3.83-3.96-5.55-7.78-11.19-11.7-16.77-10.5-14.95-21.03-29.89-31.54-44.83,1.08-.38,2.14-.86,3.26-1.14,13.51-3.37,25.64-9.61,36.54-18.14,20.89-16.36,31.24-38.57,33.51-64.4,1.82-20.6-3.5-39.25-19.76-53.51Z" fill="#f7b811"/></g></svg>